<?xml version="1.0" encoding="utf-8"?>
<!-- Generator: Adobe Illustrator 18.1.1, SVG Export Plug-In . SVG Version: 6.00 Build 0)  -->
<!DOCTYPE svg PUBLIC "-//W3C//DTD SVG 1.1//EN" "http://www.w3.org/Graphics/SVG/1.1/DTD/svg11.dtd">
<svg id="Circular_graph" data-name="Circular graph" xmlns="http://www.w3.org/2000/svg" viewBox="0 0 19.12 19.12">
	<defs>
		<style>
			.cls-1 {
				fill: #FFFFFF;
			}
		</style>
	</defs>
	<path class="cls-1"
		d="M18,9.37h1a.51.51,0,0,0,.51-.56A9.36,9.36,0,0,0,19.13,7a.51.51,0,0,0-.74-.27l-.88.51a.51.51,0,0,0-.22.59,8.41,8.41,0,0,1,.25,1.13A.5.5,0,0,0,18,9.37ZM13.49,1a9.79,9.79,0,0,0-1.8-.51.6.6,0,0,0-.68.59V2a.6.6,0,0,0,.49.57,7,7,0,0,1,1.13.31.58.58,0,0,0,.72-.24l.42-.73A.58.58,0,0,0,13.49,1ZM16.62,5.4l.88-.5a.51.51,0,0,0,.16-.74A10.1,10.1,0,0,0,16.27,2.7a.5.5,0,0,0-.75.14L15,3.72a.5.5,0,0,0,.1.62,7,7,0,0,1,.87.93A.49.49,0,0,0,16.62,5.4ZM9.48,17.55a8,8,0,0,1-7-7.16A7.59,7.59,0,0,1,8.82,2.47.21.21,0,0,0,9,2.25V.81C9,.55,8.89.44,8.75.46A9.59,9.59,0,0,0,.43,10.54a9.69,9.69,0,0,0,9.66,9,9.59,9.59,0,0,0,9.37-7.92.25.25,0,0,0-.24-.28H17.66a.23.23,0,0,0-.22.18A7.58,7.58,0,0,1,9.48,17.55Z"
		transform="translate(-0.41 -0.45)" />
</svg>